<svg width="40" height="18" viewBox="0 0 40 18" fill="none" xmlns="http://www.w3.org/2000/svg">
<path d="M4.9707 1.21875C5.42643 1.24479 5.80078 1.42057 6.09375 1.74609C6.38672 2.0651 6.59831 2.42969 6.72852 2.83984C6.85872 3.25 6.92383 3.66992 6.92383 4.09961C6.92383 4.5293 6.85872 4.94922 6.72852 5.35938C6.60482 5.76953 6.39323 6.13737 6.09375 6.46289C5.80078 6.7819 5.42643 6.95443 4.9707 6.98047H1.37695C1.20117 6.97396 1.05143 6.91211 0.927734 6.79492C0.810547 6.67122 0.748698 6.52148 0.742188 6.3457V3.92383C0.748698 3.74154 0.817057 3.5918 0.947266 3.47461C1.07747 3.35091 1.23372 3.28906 1.41602 3.28906C1.5918 3.29557 1.74154 3.36068 1.86523 3.48438C1.98893 3.60156 2.05404 3.74805 2.06055 3.92383V5.4082C2.06055 5.58398 2.15169 5.67188 2.33398 5.67188H4.63867C4.88607 5.65885 5.09115 5.56445 5.25391 5.38867C5.41667 5.21289 5.53385 5.01432 5.60547 4.79297C5.68359 4.5651 5.72266 4.33398 5.72266 4.09961C5.72266 3.86523 5.68359 3.63737 5.60547 3.41602C5.53385 3.18815 5.41667 2.98633 5.25391 2.81055C5.09115 2.63477 4.88607 2.54036 4.63867 2.52734H1.37695C0.986328 2.49479 0.77474 2.2832 0.742188 1.89258C0.742188 1.71029 0.800781 1.55404 0.917969 1.42383C1.04167 1.29362 1.19466 1.22526 1.37695 1.21875H4.9707ZM8.66211 1.0625C8.83789 1.06901 8.98763 1.13411 9.11133 1.25781C9.23503 1.375 9.30013 1.52148 9.30664 1.69727V2.54688H12.334C12.7897 2.55339 13.1641 2.68359 13.457 2.9375C13.7565 3.1849 13.9681 3.46484 14.0918 3.77734C14.222 4.09635 14.2871 4.42513 14.2871 4.76367H14.2969V6.46289C14.2969 6.64518 14.2285 6.79818 14.0918 6.92188C13.9616 7.03906 13.8053 7.09766 13.623 7.09766C13.2324 7.0651 13.0176 6.85352 12.9785 6.46289V4.75391C12.9785 4.63021 12.9525 4.5 12.9004 4.36328C12.8548 4.22656 12.7865 4.10938 12.6953 4.01172C12.6042 3.90755 12.4967 3.85547 12.373 3.85547H9.30664V6.48242C9.26758 6.87305 9.05273 7.08464 8.66211 7.11719C8.47982 7.11719 8.32031 7.05859 8.18359 6.94141C8.05339 6.81771 7.98828 6.66471 7.98828 6.48242V1.69727C7.99479 1.51497 8.06315 1.36523 8.19336 1.24805C8.32357 1.12435 8.47982 1.0625 8.66211 1.0625ZM15.7324 3.77734C15.8561 3.46484 16.0645 3.1849 16.3574 2.9375C16.6569 2.68359 17.0345 2.55339 17.4902 2.54688H21.1621C21.3444 2.54688 21.4974 2.61198 21.6211 2.74219C21.7513 2.86589 21.8164 3.01888 21.8164 3.20117C21.8164 3.38346 21.7513 3.53971 21.6211 3.66992C21.4974 3.79362 21.3444 3.85547 21.1621 3.85547H17.4512C17.3275 3.85547 17.2201 3.90755 17.1289 4.01172C17.0378 4.10938 16.9661 4.22656 16.9141 4.36328C16.8685 4.5 16.8457 4.63021 16.8457 4.75391V6.46289C16.8066 6.85352 16.5918 7.0651 16.2012 7.09766C16.0189 7.09766 15.8594 7.03906 15.7227 6.92188C15.5924 6.79818 15.5273 6.64518 15.5273 6.46289V4.76367H15.5371C15.5371 4.42513 15.6022 4.09635 15.7324 3.77734ZM25.8984 7.14648C25.5599 7.14648 25.2246 7.10742 24.8926 7.0293C24.5671 6.95117 24.2546 6.83724 23.9551 6.6875C23.6556 6.53125 23.3919 6.32617 23.1641 6.07227C22.9362 5.81836 22.8125 5.51562 22.793 5.16406V4.75391V3.08398C22.793 2.90169 22.8581 2.75195 22.9883 2.63477C23.125 2.51107 23.2845 2.44922 23.4668 2.44922C23.8574 2.48177 24.069 2.69336 24.1016 3.08398V3.51367V4.86133C24.1146 5.06315 24.1895 5.23242 24.3262 5.36914C24.4694 5.49935 24.6257 5.60352 24.7949 5.68164C24.9707 5.75977 25.1497 5.81836 25.332 5.85742C25.5208 5.89648 25.7096 5.91602 25.8984 5.91602C26.0872 5.91602 26.2728 5.89648 26.4551 5.85742C26.6439 5.81836 26.8229 5.75977 26.9922 5.68164C27.168 5.60352 27.3242 5.49935 27.4609 5.36914C27.6042 5.23242 27.6823 5.06315 27.6953 4.86133V3.51367V3.08398C27.6953 2.90169 27.7604 2.75195 27.8906 2.63477C28.0273 2.51107 28.1868 2.44922 28.3691 2.44922C28.7598 2.48177 28.9746 2.69336 29.0137 3.08398V4.75391V5.16406C28.9941 5.51562 28.8672 5.81836 28.6328 6.07227C28.4049 6.32617 28.1413 6.53125 27.8418 6.6875C27.5423 6.83724 27.2266 6.95117 26.8945 7.0293C26.569 7.10742 26.237 7.14648 25.8984 7.14648ZM32.3828 1.0625C32.5651 1.0625 32.7214 1.12435 32.8516 1.24805C32.9818 1.36523 33.0501 1.51497 33.0566 1.69727V2.54688H36.377C36.5592 2.54688 36.7155 2.60872 36.8457 2.73242C36.9694 2.86263 37.0312 3.01888 37.0312 3.20117C37.0312 3.38346 36.9661 3.53971 36.8359 3.66992C36.7122 3.79362 36.5592 3.85547 36.377 3.85547H33.0566V4.05078C33.0501 4.31771 33.0664 4.5651 33.1055 4.79297C33.151 5.01432 33.2552 5.21289 33.418 5.38867C33.5807 5.56445 33.7858 5.65885 34.0332 5.67188H36.416C36.5983 5.67839 36.748 5.74674 36.8652 5.87695C36.9889 6.00716 37.0508 6.16341 37.0508 6.3457C37.0443 6.52148 36.9792 6.67122 36.8555 6.79492C36.7383 6.91211 36.5918 6.97396 36.416 6.98047H33.7012C33.2454 6.95443 32.8678 6.80143 32.5684 6.52148C32.2754 6.23503 32.0638 5.88672 31.9336 5.47656C31.8099 5.06641 31.7448 4.63021 31.7383 4.16797V3.85547H30.6152C30.4329 3.85547 30.2799 3.79036 30.1562 3.66016C30.026 3.53646 29.9609 3.38346 29.9609 3.20117C29.9609 3.01888 30.0228 2.86589 30.1465 2.74219C30.2767 2.61198 30.4329 2.54688 30.6152 2.54688H31.7383V1.69727C31.7448 1.52148 31.8099 1.375 31.9336 1.25781C32.0573 1.13411 32.207 1.06901 32.3828 1.0625ZM38.6621 2.44922C38.8379 2.45573 38.9876 2.52083 39.1113 2.64453C39.235 2.76172 39.3001 2.9082 39.3066 3.08398V6.46289C39.2676 6.85352 39.0527 7.0651 38.6621 7.09766C38.4798 7.09766 38.3203 7.03906 38.1836 6.92188C38.0534 6.79818 37.9883 6.64518 37.9883 6.46289V3.08398C37.9948 2.90169 38.0632 2.75195 38.1934 2.63477C38.3236 2.51107 38.4798 2.44922 38.6621 2.44922ZM37.8418 1.17969C37.8418 0.997396 37.9199 0.841146 38.0762 0.710938C38.2324 0.580729 38.4212 0.515625 38.6426 0.515625C38.8639 0.515625 39.0527 0.580729 39.209 0.710938C39.3652 0.841146 39.4434 0.997396 39.4434 1.17969C39.4434 1.36849 39.3652 1.52799 39.209 1.6582C39.0527 1.78841 38.8639 1.85352 38.6426 1.85352C38.4212 1.85352 38.2324 1.78841 38.0762 1.6582C37.9199 1.52799 37.8418 1.36849 37.8418 1.17969ZM4.72168 11.0625C4.90397 11.0625 5.06022 11.1243 5.19043 11.248C5.32064 11.3652 5.389 11.515 5.39551 11.6973V14.0508C5.389 14.3177 5.40527 14.5651 5.44434 14.793C5.48991 15.0143 5.59408 15.2129 5.75684 15.3887C5.9196 15.5645 6.12467 15.6589 6.37207 15.6719H9.49707C9.67936 15.6784 9.8291 15.7467 9.94629 15.877C10.07 16.0072 10.1318 16.1634 10.1318 16.3457C10.1253 16.5215 10.0602 16.6712 9.93652 16.7949C9.81934 16.9121 9.67285 16.974 9.49707 16.9805H6.04004C5.58431 16.9544 5.20671 16.8014 4.90723 16.5215C4.61426 16.235 4.40267 15.8867 4.27246 15.4766C4.14876 15.0664 4.08366 14.6302 4.07715 14.168V11.6973C4.08366 11.5215 4.14876 11.375 4.27246 11.2578C4.39616 11.1341 4.5459 11.069 4.72168 11.0625ZM16.5186 16.4629V14.1094C16.5186 13.9466 16.4339 13.862 16.2646 13.8555H12.8467C12.723 13.862 12.6156 13.9173 12.5244 14.0215C12.4333 14.1191 12.3649 14.2363 12.3193 14.373C12.2803 14.5033 12.2607 14.6367 12.2607 14.7734C12.2607 14.9036 12.2803 15.0371 12.3193 15.1738C12.3649 15.304 12.4333 15.4212 12.5244 15.5254C12.6156 15.623 12.723 15.6719 12.8467 15.6719H15.3467C15.529 15.6719 15.682 15.737 15.8057 15.8672C15.9359 15.9909 16.001 16.1439 16.001 16.3262C16.001 16.5085 15.9359 16.6615 15.8057 16.7852C15.682 16.9154 15.529 16.9805 15.3467 16.9805H12.8857C12.43 16.974 12.0524 16.847 11.7529 16.5996C11.46 16.3457 11.2484 16.0625 11.1182 15.75C10.9945 15.431 10.9326 15.1022 10.9326 14.7637C10.9326 14.4382 10.9977 14.1191 11.1279 13.8066C11.2581 13.4876 11.4697 13.2044 11.7627 12.957C12.0557 12.7031 12.4886 12.5664 13.0615 12.5469H17.1631C17.3454 12.5469 17.5016 12.6087 17.6318 12.7324C17.762 12.8496 17.8304 12.9993 17.8369 13.1816V16.4629C17.8369 16.6452 17.7686 16.7982 17.6318 16.9219C17.5016 17.0391 17.3454 17.0977 17.1631 17.0977C16.7725 17.0651 16.5576 16.8535 16.5186 16.4629ZM19.7705 11.0625C19.9463 11.069 20.096 11.1341 20.2197 11.2578C20.3434 11.375 20.4085 11.5215 20.415 11.6973V16.4824C20.376 16.873 20.1611 17.0846 19.7705 17.1172C19.5882 17.1172 19.4287 17.0586 19.292 16.9414C19.1618 16.8177 19.0967 16.6647 19.0967 16.4824V11.6973C19.1032 11.515 19.1715 11.3652 19.3018 11.248C19.432 11.1243 19.5882 11.0625 19.7705 11.0625ZM27.1143 16.4629V14.1094C27.1143 13.9466 27.0296 13.862 26.8604 13.8555H23.4424C23.3187 13.862 23.2113 13.9173 23.1201 14.0215C23.029 14.1191 22.9606 14.2363 22.915 14.373C22.876 14.5033 22.8564 14.6367 22.8564 14.7734C22.8564 14.9036 22.876 15.0371 22.915 15.1738C22.9606 15.304 23.029 15.4212 23.1201 15.5254C23.2113 15.623 23.3187 15.6719 23.4424 15.6719H25.9424C26.1247 15.6719 26.2777 15.737 26.4014 15.8672C26.5316 15.9909 26.5967 16.1439 26.5967 16.3262C26.5967 16.5085 26.5316 16.6615 26.4014 16.7852C26.2777 16.9154 26.1247 16.9805 25.9424 16.9805H23.4814C23.0257 16.974 22.6481 16.847 22.3486 16.5996C22.0557 16.3457 21.8441 16.0625 21.7139 15.75C21.5902 15.431 21.5283 15.1022 21.5283 14.7637C21.5283 14.4382 21.5934 14.1191 21.7236 13.8066C21.8538 13.4876 22.0654 13.2044 22.3584 12.957C22.6514 12.7031 23.0843 12.5664 23.6572 12.5469H27.7588C27.9411 12.5469 28.0973 12.6087 28.2275 12.7324C28.3577 12.8496 28.4261 12.9993 28.4326 13.1816V16.4629C28.4326 16.6452 28.3643 16.7982 28.2275 16.9219C28.0973 17.0391 27.9411 17.0977 27.7588 17.0977C27.3682 17.0651 27.1533 16.8535 27.1143 16.4629ZM32.8076 12.4004C33.1462 12.4004 33.4782 12.4395 33.8037 12.5176C34.1357 12.5957 34.4515 12.7129 34.751 12.8691C35.0505 13.0189 35.3141 13.2207 35.542 13.4746C35.7764 13.7285 35.9033 14.0312 35.9229 14.3828V14.793V16.4629C35.8838 16.8535 35.6689 17.0651 35.2783 17.0977C35.096 17.0977 34.9365 17.0391 34.7998 16.9219C34.6696 16.7982 34.6045 16.6452 34.6045 16.4629V16.0332V14.6855C34.5915 14.4837 34.5133 14.3177 34.3701 14.1875C34.2334 14.0508 34.0771 13.9434 33.9014 13.8652C33.7321 13.7871 33.5531 13.7285 33.3643 13.6895C33.182 13.6504 32.9964 13.6309 32.8076 13.6309C32.6188 13.6309 32.43 13.6504 32.2412 13.6895C32.0589 13.7285 31.8799 13.7871 31.7041 13.8652C31.5348 13.9434 31.3786 14.0508 31.2354 14.1875C31.0986 14.3177 31.0238 14.4837 31.0107 14.6855V16.0332V16.4629C30.9782 16.8535 30.7666 17.0651 30.376 17.0977C30.1937 17.0977 30.0342 17.0391 29.8975 16.9219C29.7673 16.7982 29.7021 16.6452 29.7021 16.4629V14.793V14.3828C29.7217 14.0312 29.8454 13.7285 30.0732 13.4746C30.3011 13.2207 30.5648 13.0189 30.8643 12.8691C31.1637 12.7129 31.4762 12.5957 31.8018 12.5176C32.1338 12.4395 32.4691 12.4004 32.8076 12.4004Z" fill="white"/>
</svg>
